<svg width="210mm" height="94.129" viewBox="0 0 210 24.905" xml:space="preserve" xmlns="http://www.w3.org/2000/svg"><path style="fill:#7e8597;stroke-width:.198546;fill-opacity:1" d="M144.817 24.697c-2.991-.704-5.829-3.385-6.878-6.5-.387-1.147-.408-1.659-.408-9.667V.075l.943.06.943.06.1 8.538.098 8.538.534 1.139c.68 1.453 2.122 2.893 3.638 3.638 1.097.538 1.358.584 3.373.584 2.106 0 2.228-.024 3.425-.674 1.56-.846 2.685-2.057 3.491-3.758l.629-1.326.061-8.389.062-8.388h1.962V8.01c0 4.521-.087 8.374-.202 8.985-.692 3.673-3.746 6.874-7.349 7.705-1.063.245-3.374.243-4.422-.004zm37.387-.097c-1.363-.36-3.054-1.499-3.924-2.643-.783-1.029-.65-1.314.608-1.304.663.005 1.108.197 2.173.934 1.524 1.055 2.135 1.217 4.187 1.114 1.969-.1 3.546-.883 4.431-2.201 1.488-2.216.813-5.38-1.383-6.484-.457-.23-2.233-.959-3.948-1.62-3.736-1.44-4.912-2.31-5.417-4.012-.978-3.29.271-6.08 3.419-7.635 1.366-.675 1.663-.747 3.114-.749 1.403-.002 1.765.076 2.894.63.71.347 1.693.996 2.184 1.44.861.778.88.819.509 1.105-.674.52-1.88.361-3.08-.403-.954-.608-1.238-.69-2.383-.688-3.554.005-5.894 3.013-4.586 5.895.446.982 1.605 1.646 4.839 2.772 3.694 1.285 5.273 2.395 6.105 4.29.637 1.455.662 4.199.049 5.54-1.51 3.305-5.812 5.071-9.792 4.02zm-64.13-12.193V.097l4.218.006c2.32.004 4.8.082 5.51.174 2.435.315 4.25 1.54 5.355 3.612.562 1.054.664 1.451.677 2.645.02 1.859-.48 3.283-1.543 4.393l-.826.862.987.656c.73.486 1.171.993 1.693 1.947.675 1.235.705 1.376.705 3.276 0 1.788-.057 2.102-.574 3.155-1.043 2.124-2.756 3.362-5.126 3.705-.687.1-3.46.183-6.163.185l-4.914.004zm11.968 9.858c3.818-1.6 3.876-7.64.084-8.765-.77-.23-2.091-.3-5.636-.3h-4.63v9.332h4.772c3.554 0 4.934-.068 5.41-.267zm-.4-11.706c1.258-.739 1.976-1.845 2.09-3.218.137-1.652-.087-2.412-1.005-3.407-1.468-1.593-1.709-1.653-6.59-1.653h-4.277v8.962l4.418-.064 4.417-.063zm30.92 1.838V.056l4.815.09c5.644.105 6.3.245 7.894 1.678 1.313 1.18 1.913 2.137 2.307 3.674.89 3.472-1.461 7.522-4.76 8.2-.38.077-.528.207-.455.397.06.155 1.821 2.567 3.915 5.36 2.093 2.794 3.754 5.13 3.69 5.194-.199.2-1.807-.128-2.374-.484-.3-.188-2.225-2.576-4.28-5.306l-3.735-4.963-2.512-.056-2.513-.055-.053 5.416-.053 5.416-.943.06-.943.061zm10.975-1.281c1.561-.983 2.45-2.717 2.284-4.453-.188-1.955-1.553-3.684-3.314-4.196-.418-.121-2.229-.182-4.386-.147l-3.673.06-.053 4.463c-.03 2.454-.007 4.583.049 4.73.082.215.891.255 4.124.203l4.022-.064zm28.536 2.387V2.289l-4.02-.054-4.021-.054V.196l8.984-.052L210 .093V2.28h-7.942v22.436h-1.985zM36.717 12.456 36.77.394 39.3.34l2.531-.056v9.542h11.516V.283L55.88.34l2.531.055.051 12.062.051 12.062h-5.158l-.053-4.815-.053-4.815-5.262-.055c-2.893-.031-5.462-.007-5.708.053l-.447.11v9.52h-5.165zm23.52 9.63C62.775 16.47 69.29 1.536 69.462.934l.187-.651 2.307.056 2.308.055 1.354 3.07c.745 1.688 1.355 3.138 1.355 3.22 0 .175 3.871 9.077 4.906 11.281.818 1.744 2.837 6.347 2.837 6.469 0 .223-3.845.058-4.424-.19-.967-.416-1.796-1.447-2.53-3.151l-.662-1.539h-5.133c-4.71 0-5.142.029-5.252.348-.4 1.16-1.477 3.203-1.918 3.64-.72.712-1.766.976-3.864.976h-1.798zm14.355-7.512c0-.228-.482-1.59-1.07-3.028-.59-1.438-1.123-2.77-1.186-2.961-.124-.375-.723-.486-.723-.134 0 .117-.536 1.502-1.19 3.078-.656 1.576-1.192 2.999-1.192 3.162 0 .248.435.297 2.68.297 2.584 0 2.68-.015 2.68-.414zm11.515-2.167V.295h5.162v24.222h-5.162zm10.325 0V.295h4.828c2.655 0 5.358.098 6.006.217 3.829.706 6.52 3.74 6.788 7.657.17 2.478-.946 5.21-2.71 6.627-.493.396-.813.819-.81 1.069.003.227 1.344 2.245 2.98 4.483l2.973 4.07-2.136.062c-2.382.068-3.318-.128-4.215-.882-.571-.48-3.276-3.988-4.487-5.818l-.544-.821-1.706.056-1.706.057-.054 3.723-.054 3.723h-5.153zm10.919-1.017c2.041-1.147 2.105-3.942.124-5.424-.472-.352-.896-.419-3.044-.476-1.92-.05-2.534-.005-2.663.199-.198.311-.236 5.796-.042 5.99.073.072 1.2.132 2.505.132 2.048 0 2.474-.058 3.12-.42zM16.586 22.997C10.014 18.345 6.046 13.77 4.982 9.612 4.18 6.483 6.136 2.649 9.31 1.128 10.969.333 12.27.176 13.85.58c1.495.383 2.387.902 3.502 2.039.46.468.974.852 1.142.852.169 0 .626-.354 1.016-.786.89-.981 2.215-1.735 3.754-2.131 2.8-.72 5.96.751 7.784 3.626 2.272 3.578.966 8.034-3.801 12.972-2.082 2.155-4.879 4.503-7.354 6.174l-1.455.982zm-2.75-8.307v-2.68h1.776l.055 2.63.056 2.63 1.141.06 1.142.06V4.842l-1.142.06-1.141.06-.056 2.53-.056 2.532h-1.775V4.862h-2.184V17.37h2.184zm10.259 2.267c1.08-.523 1.328-1.253 1.23-3.62-.06-1.433-.142-1.784-.5-2.142-.426-.425-.426-.432-.05-1.048.542-.89.531-3.344-.02-4.248-.54-.886-1.062-1.037-3.585-1.037h-2.171V17.37h2.12c1.744 0 2.274-.074 2.976-.413zm-2.714-3.36V12.01h.589c.727 0 1 .453 1 1.659 0 1.291-.137 1.518-.915 1.518h-.674zm0-5.174V7.021l.645.062c.628.06.647.09.705 1.086.051.878-.005 1.07-.392 1.34-.824.578-.958.427-.958-1.086z"/></svg>