<svg width="191mm" height="36mm" viewBox="0 0 191 36" xml:space="preserve" xmlns="http://www.w3.org/2000/svg"><path style="fill:#7e8597;fill-opacity:1;stroke-width:.198366" d="M18.088 35.38c-1.127-.491-2.844-1.75-3.83-2.804-2.525-2.704-3.927-6.34-3.927-10.187 0-1.986.211-2.947 1.513-6.887 1.477-4.47 1.673-5.67 1.8-10.99.058-2.481.15-4.512.204-4.512.053 0 .625.281 1.27.625 2.347 1.25 4.939 4.116 5.984 6.615 1.753 4.192 1.711 7.345-.17 12.883-1.53 4.51-1.678 5.399-1.811 10.872-.063 2.59-.17 4.704-.237 4.695-.067-.01-.426-.149-.796-.31zM5.422 33.518c-1.614-.925-3.069-2.538-3.978-4.409-1.43-2.942-1.565-5.56-.468-9.087A41.757 41.757 0 0 0 2.6 12.299c.21-1.92.183-3.028-.136-5.332l-.12-.869 1.211.646C5.595 7.83 7.411 9.838 8.312 12c.722 1.734.898 2.722.882 4.96-.012 1.752-.118 2.532-.542 3.962-1.019 3.44-1.95 9.057-1.916 11.56.012.9-.044 1.635-.125 1.634-.082 0-.616-.27-1.189-.599zm56.934.164c-.184-.225-.864-1.914-3.74-9.283a995.896 995.896 0 0 0-1.482-3.769 480.474 480.474 0 0 1-1.538-3.942c-.534-1.392-.75-1.766-.856-1.488-.133.349-1.772 10.42-2.481 15.25-.446 3.033-.48 3.074-2.54 3.074-.917 0-1.807-.054-1.98-.12-.423-.163-.403-1.052.078-3.413.216-1.057.657-3.395.98-5.195 1.463-8.16 1.998-11.073 2.185-11.902.11-.491.482-2.5.825-4.463.344-1.964.75-3.772.903-4.017.347-.556 1.452-.614 1.897-.1.165.191.772 1.508 1.349 2.926.577 1.419 1.853 4.543 2.836 6.943.983 2.4 2.422 5.932 3.199 7.847l1.412 3.483 1.165-2.888c.641-1.588 1.28-3.155 1.418-3.483.447-1.055 1.994-4.841 3.97-9.72 1.061-2.618 2.063-4.917 2.227-5.108.173-.2.575-.347.957-.347.773 0 1.152.476 1.34 1.686.068.437.25 1.463.404 2.282.154.818.638 3.451 1.077 5.851.438 2.4 1.382 7.555 2.099 11.456.716 3.9 1.303 7.304 1.303 7.566 0 .622-.3.716-2.293.716-1.512 0-1.691-.041-1.945-.446-.153-.246-.698-3.035-1.21-6.2-.511-3.163-1.049-6.377-1.194-7.14a84.746 84.746 0 0 1-.514-3.132c-.138-.958-.31-1.672-.382-1.587-.072.086-.497 1.093-.944 2.239l-3.093 7.934a1035.322 1035.322 0 0 1-2.844 7.24l-.563 1.39-.908.059c-.568.037-.986-.037-1.117-.199zm85.542.125c-2.35-.556-3.222-.858-4.71-1.632-2.953-1.536-5.054-3.756-6.524-6.892-1.11-2.367-1.42-4.015-1.31-6.934.102-2.674.606-4.506 1.884-6.844 1.046-1.913 3.87-4.632 5.928-5.707 3.978-2.078 8.678-2.326 12.696-.67 2.339.965 4.83 2.759 4.83 3.478 0 .353-2.318 2.9-2.64 2.9-.114 0-.872-.46-1.683-1.02-4.473-3.093-9.354-2.744-13.055.932-1.648 1.637-2.458 3.158-2.954 5.542-.728 3.507.596 7.474 3.312 9.916 2.92 2.625 7.036 3.28 11.284 1.796.793-.277 1.47-.504 1.506-.504.036 0 .065-.982.065-2.182v-2.182h-2.168c-2.728 0-2.791-.05-2.791-2.157 0-.927.094-1.627.238-1.77.17-.171 1.459-.239 4.541-.239 3.741 0 4.319.041 4.424.314.066.173.12 2.71.12 5.64v5.326l-.566.403c-.824.587-3.702 1.706-5.401 2.1-1.41.328-6.169.59-7.026.386zm-63.86-.595c-.274-.274-.311-1.394-.311-9.309 0-7.915.037-9.035.311-9.309.443-.442 3.298-.442 3.74 0 .275.274.313 1.394.313 9.31 0 7.914-.038 9.034-.312 9.308-.23.23-.718.312-1.87.312-1.153 0-1.64-.081-1.87-.312zm10.209-.072c-.136-.254-.205-5.077-.205-14.27V4.981l.44-.31c.62-.434 3.375-.432 3.81.004.27.27.312 1.107.312 6.15v5.837h14.878v-5.944c0-6.906-.203-6.355 2.336-6.355 1.268 0 1.632.07 1.898.363.299.33.328 1.607.328 14.268 0 12.377-.034 13.94-.312 14.217-.39.39-3.636.45-4.012.074-.175-.175-.238-1.86-.238-6.348v-6.11H98.604v6.11c0 4.488-.063 6.173-.238 6.348-.15.15-.91.238-2.076.238-1.614 0-1.863-.047-2.043-.384zm31.25.072c-.278-.277-.312-1.845-.312-14.27V4.981l.441-.31c.62-.434 3.375-.432 3.81.004.277.277.312 1.852.312 14.342 0 10.648-.058 14.087-.238 14.268-.377.377-3.622.317-4.013-.074zm41.654-.129c-.272-.389-.309-2.066-.309-14.183 0-16.044-.238-14.536 2.294-14.536 2.46 0 2.268-.538 2.268 6.355v5.944h14.878v-5.821c0-6.912-.156-6.478 2.332-6.478 1.196 0 1.687.08 1.919.312.277.277.311 1.851.311 14.342 0 10.648-.057 14.087-.238 14.268-.376.376-3.622.317-4.012-.074-.27-.27-.312-1.125-.312-6.348v-6.036h-14.878v6.228c0 5.495-.036 6.241-.313 6.347-.173.067-1.06.12-1.973.12-1.489 0-1.69-.044-1.967-.44zM28.779 27.335c-1.21-.593-3.155-2.577-3.945-4.027-1.601-2.94-1.82-6.46-.624-10.024 1.27-3.785 1.432-4.744 1.54-9.069.054-2.209.156-4.016.225-4.015.07.001.617.283 1.217.627 2.353 1.346 4.314 4.069 4.965 6.89.326 1.417.279 4.628-.088 5.871-.16.546-.515 1.729-.788 2.629-1.012 3.34-1.312 5.288-1.312 8.52 0 1.669-.067 3.034-.148 3.034-.082 0-.55-.196-1.042-.436zm56.537-16.976c-1.254-.214-2.185-1.434-2.184-2.86.002-2.187 2.261-3.593 4.096-2.55 1.544.877 2.024 2.3 1.288 3.82-.586 1.21-1.824 1.825-3.2 1.59z"/></svg>