<svg width="190mm" height="74.052" viewBox="0 0 190 19.593" xml:space="preserve" xmlns="http://www.w3.org/2000/svg"><path style="fill:#7e8597;fill-opacity:1;stroke-width:.169398" d="m101.529 19.51-.51-.085-1.01-.338-1.012-.338-.726-.424-.725-.424-.808-.794-.807-.794-.484-.706-.484-.705-.523-1.488-.522-1.488.002-2.115.002-2.114.462-1.354.462-1.353.613-.93.613-.93.815-.799.816-.799.887-.448.887-.448 1.15-.318L101.779 0h1.972l1.362.395 1.362.395.965.638.965.639.767.87.768.87.65 1.289.651 1.29.213 1.493.213 1.493-.106 1.367-.105 1.367-.262.878-.261.879-.504.976-.504.977-.676.786-.677.786-.974.645-.975.645-1.081.391-1.08.392-1.213.066-1.212.066zm2.916-4.51.88-.378.516-.459.516-.458.401-.636.401-.636.219-.911.218-.911-.088-1.406-.088-1.406-.387-.798-.388-.798-.672-.65-.673-.651-.762-.337-.762-.336h-1.983l-.896.402-.895.401-.578.571-.578.571-.44.93-.44.931.004 1.776.004 1.776.42.833.42.833.594.627.593.627.593.3.593.3.425.128.425.13.763.007.764.008.88-.379zM0 9.812V.507l2.248.004 2.247.004 2.842 5.717 2.841 5.716v.703l-.95 1.888-.95 1.887-.195-.063-.195-.063-2.075-4.132-2.076-4.132-.003 5.54-.002 5.54H0Zm9.16 9.24v-.073l2.056-4.118 2.055-4.118 2.558-5.118L18.387.507h4.345l-.001.127v.127l-4.413 8.881-4.413 8.88-.143.255-.142.253-2.23.048-2.23.047zm10.01-3.296v-3.36l1.692-3.406 1.694-3.407h.176v13.532H19.17Zm16.912 3.253-.119-.119v-7.048l-2.799-5.48L30.365.88V.338l1.909.003 1.908.003.183.125.184.124 1.123 2.326 1.123 2.327.55 1.185.55 1.184.12-.128.118-.128.43-.846.43-.845 1.115-2.337L41.222.995V.69l.328-.175.328-.175h3.585v.534L42.711 6.23l-2.752 5.358-.09 3.722-.089 3.721-1.79.048-1.79.048zM53.097 9.8V.487l4.538.053 4.537.052.765.457.765.458.538.557.538.558.479.93.478.93v4.399l-.543 1.035-.542 1.035-.782.686-.781.686-.797.292-.796.291-2.29.102-2.29.102-.047 3.002-.046 3.003h-3.724Zm7.807-.924.37-.334.237-.457.237-.457v-1.91l-.268-.449-.27-.449-.451-.338-.453-.339h-3.392l-.048 2.36-.047 2.36.092.24.092.238 1.765-.065 1.766-.065zm13.228.922V.483l4.623.055 4.622.054 1.04.542 1.04.542.507.642.507.642.377 1.04.378 1.039-.058 1.757-.059 1.757-.545 1.104-.546 1.105-.684.548-.684.548v.436l1.11 2.777 1.11 2.776.235.5.235.502-.083.133-.083.134h-4.058l-.16-.38-.161-.381-.854-2.284-.853-2.284-.298-.592-.297-.592-1.075-.05-1.075-.051-.24.198-.239.199v6.216h-3.732Zm7.921-1.164.542-.33.288-.438.288-.438V5.593L82.72 5l-.453-.592-.632-.185-.632-.185-1.526.053-1.527.052-.048 2.19-.048 2.19.085.221.085.22h3.488l.542-.33zm40.087 3.39V4.932l-.103-.267-.103-.268h-4.375V.507h13.074l-.048 1.903-.048 1.904-2.29.084-2.29.085-.045 7.316-.044 7.316h-3.728zm16.964-2.214V.507h10.867l-.047 1.903-.048 1.904-3.478.084-3.477.085v3.214l2.956.046 2.956.047.225.185.224.186v2.936l-.204.203-.203.203-2.808.003-2.807.003-.219.138-.218.138.049 1.678.049 1.678 3.477.084 3.478.085.048 1.903.048 1.903h-10.868zm21.317 9.191-.113-.113V.507h3.902v18.608h-3.675zm14.893-.099-.08-.211.043-9.05.044-9.05 2.12-.045 2.121-.044.355.636.354.637 1.665 2.876 1.664 2.876.293.507.292.508.73 1.268.729 1.269.224.423.223.423.002-5.71.002-5.709H190l-.044 9.262-.044 9.261-2.053.048-2.053.047-.187-.225-.188-.225-1-1.768-.999-1.767-.701-1.217-.701-1.216-.322-.56-.322-.56-.606-1.015-.607-1.014-.434-.804-.435-.803h-.333v11.164h-3.573l-.081-.211z"/></svg>