<svg width="210mm" height="38mm" viewBox="0 0 210 38" xml:space="preserve" xmlns="http://www.w3.org/2000/svg"><path style="fill:#7e8597;fill-opacity:1;stroke-width:.186807" d="M6.814 36.67c-.43-.448-.61-.937-.95-2.569-.23-1.108-.552-2.646-.715-3.416-.163-.771-.589-2.789-.945-4.484l-1.417-6.725a936.867 936.867 0 0 1-1.013-4.857c-.135-.668-.473-2.3-.75-3.626-.56-2.67-.525-3.446.177-3.998.546-.43.963-.54 6.073-1.602l6.254-1.304c1.23-.258 2.247-.453 2.26-.433.03.05-1.227 5.793-1.28 5.847-.025.024-1.305.184-2.846.354-4.024.446-3.974.435-4.63 1.02l-.599.536-.05 8.281c-.047 8.02-.036 8.301.328 8.894.442.718.81.883 2.384 1.064.642.075 1.168.178 1.168.23 0 .052-.133.606-.295 1.231-.324 1.252-.247 2.06.3 3.13.328.644 1.212 1.53 1.956 1.961.27.157-.053.277-1.625.607-2.663.559-3.131.542-3.785-.141zm16.338-.282c-2.003-.438-5.112-1.105-6.908-1.483-4.274-.9-4.606-1.206-4.095-3.777l.241-1.211.664.098c.745.11 2.832.331 7.11.753 7.614.752 8.802.87 10.401 1.042 1.989.212 2.526.078 2.946-.734.251-.486.289-1.963.287-11.264-.002-8.253-.057-10.81-.24-11.17-.458-.907-.854-.953-4.718-.559-6.884.703-9.345.963-10.632 1.124-.716.09-1.325.139-1.354.11-.05-.05.749-3.908 1.358-6.56.165-.72.433-1.455.594-1.635.446-.495 3.168-.44 5.654.114 1.079.24 5.072 1.098 8.873 1.905 6.274 1.333 6.96 1.516 7.426 1.976.603.595.656 1.262.238 3.019a304.29 304.29 0 0 0-1.127 5.269c-.468 2.26-.98 4.698-1.138 5.417a4207.6 4207.6 0 0 0-2.099 9.808l-1.812 8.5-4.013.027-4.013.027zm32.361-6.18c-2.444-.658-3.994-2.01-4.74-4.133-.201-.571-.338-1.066-.305-1.1.034-.033.75-.314 1.592-.624l1.53-.565.35.787c.786 1.77 2.187 2.749 3.93 2.749 1.936 0 3.205-1.023 3.204-2.583-.002-1.739-1.014-2.579-4.765-3.956-2.64-.968-3.708-1.76-4.545-3.368-.572-1.1-.621-1.319-.543-2.44.146-2.104 1.136-3.53 3.202-4.612.871-.457 1.139-.5 3.102-.504 2.501-.004 3.317.27 4.765 1.606.743.684 1.741 2.163 1.553 2.3-.033.023-.725.33-1.539.682-1.22.527-1.494.59-1.569.359-.05-.154-.437-.63-.86-1.056-.596-.6-.963-.805-1.62-.904-1.892-.284-3.719.842-3.719 2.29 0 1.28.78 1.939 3.526 2.972 2.368.892 4.026 1.812 4.98 2.764 2.551 2.547 1.917 6.693-1.316 8.606-1.573.93-4.286 1.249-6.213.73zm53.136-.002c-2.045-.654-3.271-2.817-2.756-4.863.488-1.94 1.633-2.745 4.644-3.266 1.101-.19 2.393-.35 2.87-.353.615-.004.9-.092.98-.301.583-1.518-1.149-2.911-3.23-2.599-.631.095-1.005.293-1.46.777-.338.357-.613.77-.613.916 0 .147-.075.267-.167.267-.19 0-2.697-.757-2.789-.842-.125-.117.757-1.634 1.248-2.148.282-.296.971-.773 1.53-1.06.867-.445 1.29-.533 2.843-.59 2.195-.079 3.318.253 4.561 1.347 1.607 1.415 1.639 1.552 1.707 7.45l.06 5.183h-3.202v-.622c0-.862-.15-.936-.798-.39-1.487 1.25-3.604 1.677-5.428 1.094zm4.279-2.677c.869-.395 1.456-1.06 1.766-2 .39-1.178.254-1.253-2.11-1.16-2.7.106-3.481.496-3.494 1.744-.007.663.428 1.356.994 1.585.681.274 2.046.193 2.844-.17zm44.332 2.54c-1.907-.804-3.222-2.048-4.064-3.845-.434-.925-.493-1.282-.493-3.011 0-1.738.058-2.084.5-3.03a7.166 7.166 0 0 1 3.528-3.501c1.28-.59 1.38-.606 3.317-.53 1.615.063 2.174.164 2.93.527 1.262.605 2.802 2.18 3.418 3.495.448.957.504 1.295.503 3.039-.001 1.719-.061 2.088-.485 2.989-.713 1.515-2.027 2.87-3.476 3.582-1.063.524-1.46.614-2.93.666-1.454.052-1.852-.004-2.748-.38zm4.297-3.017c1.943-1.005 2.78-3.767 1.754-5.798-1.03-2.043-3.438-2.83-5.307-1.735-1.27.744-1.906 1.818-2 3.377-.053.897.018 1.513.242 2.1.351.919 1.528 2.047 2.428 2.325.743.23 2.178.096 2.883-.269zm12.442 3.1c-1.98-.676-3.619-2.291-4.44-4.377-.29-.73-.386-1.403-.387-2.687-.002-1.566.051-1.822.62-2.978.747-1.518 1.88-2.668 3.326-3.378.982-.483 1.24-.525 3.216-.525 1.972 0 2.236.043 3.207.52 2.867 1.408 4.453 4.555 3.9 7.737-.248 1.418-.515 2.011-1.507 3.342-.81 1.086-2.132 2.004-3.467 2.41-1.206.365-3.3.336-4.468-.063zm3.528-2.873c2.293-.685 3.424-3.722 2.257-6.063-.741-1.488-2.515-2.491-3.882-2.196-3.929.848-4.773 6.138-1.271 7.967 1.099.574 1.737.639 2.896.292zm23.933 2.97c-1.134-.377-1.86-.798-2.531-1.47-.664-.664-1.297-1.613-1.298-1.947 0-.116.615-.461 1.366-.768l1.368-.556.625.744c.344.41 1.002.912 1.463 1.116 1.446.64 3.242.17 3.515-.918.252-1.005-.626-1.599-3.251-2.194-2.59-.588-3.754-1.285-4.356-2.61-.466-1.027-.443-1.884.083-3.012 1.518-3.261 6.954-3.768 9.674-.902 1.15 1.212 1.113 1.408-.376 1.99-.707.276-1.33.502-1.384.502-.053 0-.384-.287-.734-.637-.472-.473-.869-.672-1.532-.772-1.775-.266-3.273.666-2.723 1.693.277.518.98.805 3.64 1.486 2.784.713 4.037 1.755 4.311 3.586.174 1.157-.17 2.176-1.059 3.14-1.052 1.142-2.3 1.63-4.373 1.711-1.07.042-1.952-.024-2.428-.182zm-129.55-.146c-.884-.266-1.743-.945-2.272-1.796-.415-.67-.442-.912-.531-4.815l-.093-4.11-1.168-.055-1.168-.055v-2.785l.981-.003c1.482-.004 1.532-.073 1.606-2.232l.064-1.875h2.941l.053 2.009.053 2.008 1.635.054 1.634.054v2.773l-1.634.053-1.635.054v6.852l.543.466c.449.386.699.456 1.443.404l.9-.063.455 1.366.455 1.365-.497.199c-.71.283-2.996.363-3.766.131zm22.403-.036c-1.946-.551-3.56-1.95-4.438-3.842-.432-.932-.488-1.285-.488-3.106 0-1.932.036-2.13.6-3.293.7-1.443 1.708-2.43 3.195-3.123.944-.441 1.268-.49 3.199-.488 1.808.002 2.288.066 3.03.408 2.194 1.012 3.48 3.034 3.648 5.745l.096 1.53-3.417.125c-1.88.068-4.25.123-5.27.123h-1.853l.126.607c.605 2.912 4.8 3.83 6.659 1.459l.437-.557 1.307.391c.72.215 1.378.455 1.464.532.49.442-1.375 2.379-3.013 3.128-1.248.572-3.9.753-5.282.361zm5.222-8.519c.383-.242-.26-1.434-1.163-2.153-.65-.519-.844-.573-2.055-.573-1.07 0-1.475.086-2.028.43-.767.477-1.457 1.456-1.457 2.068 0 .39.057.398 3.222.395 1.772-.001 3.339-.077 3.48-.167zm91.228 8.58c-1.038-.246-2.021-1.033-2.497-2-.417-.846-.447-1.134-.503-4.869l-.06-3.97h-2.402v-2.802h1.084c.596 0 1.184-.1 1.307-.224.144-.144.224-.88.224-2.055v-1.83h3.176v4.109h3.363v2.802h-3.362v3.465c0 3.456.001 3.465.471 3.936.402.402.616.465 1.434.421l.961-.05.435 1.288c.25.741.365 1.359.27 1.453-.439.44-2.646.624-3.901.326zM78.82 23.4v-6.725h3.176v1.766l.594-.72c.743-.902 2.204-1.602 3.347-1.605.908-.002 2.037.307 2.037.558 0 .144-.755 2.673-.82 2.746-.017.02-.366-.04-.774-.135-1.124-.26-2.493.194-3.31 1.1-.869.96-1.074 2.194-1.074 6.44v3.3H78.82zm42.405-.093v-6.819h3.176v.84c0 .463.053.841.117.841.065 0 .453-.302.862-.672 1.117-1.009 2.074-1.374 3.598-1.374 1.626 0 2.58.404 3.505 1.485l.681.796.46-.546c.253-.3.908-.79 1.456-1.09.825-.448 1.272-.555 2.597-.619 1.35-.065 1.72-.016 2.36.31 1.113.568 1.848 1.392 2.285 2.56.355.95.386 1.434.386 6.07v5.036h-3.362l-.003-4.623c-.003-4.456-.019-4.651-.426-5.371-.979-1.73-3.616-1.437-4.66.516-.398.746-.426 1.042-.481 5.135l-.06 4.343h-3.338v-4.321c0-4.756-.12-5.52-.98-6.245-.432-.362-.753-.455-1.573-.455-1.187 0-1.862.328-2.434 1.185-.625.936-.803 2.314-.803 6.203v3.633h-3.363zm24.659-3.27V9.95h3.549v20.174h-3.549zm-119.65 7.74c-.372-.054-2.263-.193-10.088-.74-6.369-.446-6.438-.454-6.835-.851-.336-.336-.357-.693-.357-5.94 0-5.043.032-5.623.327-5.982.353-.429.601-.456 11.255-1.218 7.455-.533 7.822-.547 8.125-.295.242.2.281 1.242.281 7.39 0 8.122.069 7.762-1.46 7.717a15.09 15.09 0 0 1-1.248-.08zM24.26 21.04c.33-.42.387-.754.387-2.294 0-2.019-.245-2.631-1.05-2.631-1.103 0-1.192.19-1.192 2.56 0 1.76.059 2.239.31 2.515.44.487 1.093.424 1.545-.15zm-10.365-.297c.21-.299.29-.873.29-2.055 0-1.39-.056-1.696-.373-2.013-.443-.443-.71-.46-1.214-.08-.52.393-.668 3.39-.201 4.1.383.585 1.106.608 1.498.048z"/></svg>