<svg width="60" height="48" viewBox="0 0 60 48" fill="none" xmlns="http://www.w3.org/2000/svg">
<path d="M29.9171 2V19" stroke="white" stroke-width="2" stroke-miterlimit="10" stroke-linecap="round" stroke-linejoin="round"/>
<path d="M14.9171 19H44.9171" stroke="white" stroke-width="2" stroke-miterlimit="10" stroke-linecap="round" stroke-linejoin="round"/>
<path d="M29.9171 46C25.9389 46 22.1236 44.4196 19.3105 41.6066C16.4975 38.7936 14.9171 34.9782 14.9171 31V17C14.9171 13.0218 16.4975 9.20644 19.3105 6.3934C22.1236 3.58035 25.9389 2 29.9171 2V2C33.8954 2 37.7107 3.58035 40.5237 6.3934C43.3368 9.20644 44.9171 13.0218 44.9171 17V31C44.9171 34.9782 43.3368 38.7936 40.5237 41.6066C37.7107 44.4196 33.8954 46 29.9171 46Z" stroke="white" stroke-width="2" stroke-miterlimit="10" stroke-linecap="round" stroke-linejoin="round"/>
</svg>
