<svg width="43" height="46" viewBox="0 0 43 46" fill="none" xmlns="http://www.w3.org/2000/svg">
<path d="M41.6417 39H35.6417V45H41.6417V39Z" stroke="white" stroke-width="2" stroke-miterlimit="10" stroke-linecap="round" stroke-linejoin="round"/>
<path d="M7.64166 39H1.64166V45H7.64166V39Z" stroke="white" stroke-width="2" stroke-miterlimit="10" stroke-linecap="round" stroke-linejoin="round"/>
<path d="M24.6417 1H18.6417V7H24.6417V1Z" stroke="white" stroke-width="2" stroke-miterlimit="10" stroke-linecap="round" stroke-linejoin="round"/>
<path d="M38.6417 7C40.2985 7 41.6417 5.65685 41.6417 4C41.6417 2.34315 40.2985 1 38.6417 1C36.9848 1 35.6417 2.34315 35.6417 4C35.6417 5.65685 36.9848 7 38.6417 7Z" stroke="white" stroke-width="2" stroke-miterlimit="10" stroke-linecap="round" stroke-linejoin="round"/>
<path d="M4.64166 7C6.29852 7 7.64166 5.65685 7.64166 4C7.64166 2.34315 6.29852 1 4.64166 1C2.98481 1 1.64166 2.34315 1.64166 4C1.64166 5.65685 2.98481 7 4.64166 7Z" stroke="white" stroke-width="2" stroke-miterlimit="10" stroke-linecap="round" stroke-linejoin="round"/>
<path d="M38.6417 7V13L34.6417 17" stroke="white" stroke-width="2" stroke-miterlimit="10" stroke-linecap="round" stroke-linejoin="round"/>
<path d="M4.64166 7V13L8.64166 17" stroke="white" stroke-width="2" stroke-miterlimit="10" stroke-linecap="round" stroke-linejoin="round"/>
<path d="M21.6417 7V10" stroke="white" stroke-width="2" stroke-miterlimit="10" stroke-linecap="round" stroke-linejoin="round"/>
<path d="M21.6417 45C23.2985 45 24.6417 43.6569 24.6417 42C24.6417 40.3431 23.2985 39 21.6417 39C19.9848 39 18.6417 40.3431 18.6417 42C18.6417 43.6569 19.9848 45 21.6417 45Z" stroke="white" stroke-width="2" stroke-miterlimit="10" stroke-linecap="round" stroke-linejoin="round"/>
<path d="M38.6417 39V33L34.6417 29" stroke="white" stroke-width="2" stroke-miterlimit="10" stroke-linecap="round" stroke-linejoin="round"/>
<path d="M4.64166 39V33L8.64166 29" stroke="white" stroke-width="2" stroke-miterlimit="10" stroke-linecap="round" stroke-linejoin="round"/>
<path d="M21.6417 39V36" stroke="white" stroke-width="2" stroke-miterlimit="10" stroke-linecap="round" stroke-linejoin="round"/>
<path d="M21.6417 28C24.4031 28 26.6417 25.7614 26.6417 23C26.6417 20.2386 24.4031 18 21.6417 18C18.8802 18 16.6417 20.2386 16.6417 23C16.6417 25.7614 18.8802 28 21.6417 28Z" stroke="white" stroke-width="2" stroke-miterlimit="10" stroke-linecap="round" stroke-linejoin="round"/>
<path d="M21.6417 18V15" stroke="white" stroke-width="2" stroke-miterlimit="10" stroke-linecap="round" stroke-linejoin="round"/>
<path d="M18.1057 19.464L15.9847 17.343" stroke="white" stroke-width="2" stroke-miterlimit="10" stroke-linecap="round" stroke-linejoin="round"/>
<path d="M16.6417 23H13.6417" stroke="white" stroke-width="2" stroke-miterlimit="10" stroke-linecap="round" stroke-linejoin="round"/>
<path d="M18.1057 26.536L15.9847 28.657" stroke="white" stroke-width="2" stroke-miterlimit="10" stroke-linecap="round" stroke-linejoin="round"/>
<path d="M21.6417 28V31" stroke="white" stroke-width="2" stroke-miterlimit="10" stroke-linecap="round" stroke-linejoin="round"/>
<path d="M25.1777 26.536L27.2987 28.657" stroke="white" stroke-width="2" stroke-miterlimit="10" stroke-linecap="round" stroke-linejoin="round"/>
<path d="M26.6417 23H29.6417" stroke="white" stroke-width="2" stroke-miterlimit="10" stroke-linecap="round" stroke-linejoin="round"/>
<path d="M25.1777 19.464L27.2987 17.343" stroke="white" stroke-width="2" stroke-miterlimit="10" stroke-linecap="round" stroke-linejoin="round"/>
</svg>
